<?xml version="1.0" encoding="UTF-8" standalone="no"?>
<!-- Created with Inkscape (http://www.inkscape.org/) -->

<svg
   xmlns:dc="http://purl.org/dc/elements/1.1/"
   xmlns:cc="http://creativecommons.org/ns#"
   xmlns:rdf="http://www.w3.org/1999/02/22-rdf-syntax-ns#"
   xmlns:svg="http://www.w3.org/2000/svg"
   xmlns="http://www.w3.org/2000/svg"
   xmlns:sodipodi="http://sodipodi.sourceforge.net/DTD/sodipodi-0.dtd"
   xmlns:inkscape="http://www.inkscape.org/namespaces/inkscape"
   width="50"
   height="50.000378"
   viewBox="0 0 13.229166 13.229267"
   version="1.1"
   id="svg8"
   sodipodi:docname="ico-svg.svg"
   inkscape:version="0.92.4 (5da689c313, 2019-01-14)">
  <defs
     id="defs2" />
  <sodipodi:namedview
     id="base"
     pagecolor="#ffffff"
     bordercolor="#666666"
     borderopacity="1.0"
     inkscape:pageopacity="0.0"
     inkscape:pageshadow="2"
     inkscape:zoom="7.9195959"
     inkscape:cx="25.185456"
     inkscape:cy="24.369501"
     inkscape:document-units="mm"
     inkscape:current-layer="layer1"
     showgrid="false"
     inkscape:window-width="1920"
     inkscape:window-height="1027"
     inkscape:window-x="-8"
     inkscape:window-y="-8"
     inkscape:window-maximized="1"
     units="px"
     fit-margin-top="0"
     fit-margin-left="0"
     fit-margin-right="0"
     fit-margin-bottom="0" />
  <metadata
     id="metadata5">
    <rdf:RDF>
      <cc:Work
         rdf:about="">
        <dc:format>image/svg+xml</dc:format>
        <dc:type
           rdf:resource="http://purl.org/dc/dcmitype/StillImage" />
        <dc:title></dc:title>
      </cc:Work>
    </rdf:RDF>
  </metadata>
  <g
     inkscape:label="Layer 1"
     inkscape:groupmode="layer"
     id="layer1"
     transform="translate(132.93318,-135.63662)">
    <rect
       style="opacity:1;fill:none;fill-opacity:1;stroke:none;stroke-width:6.08541679;stroke-miterlimit:4;stroke-dasharray:none;stroke-opacity:1"
       id="rect825"
       width="11.024868"
       height="10.390102"
       x="-131.53001"
       y="145.82567" />
    <g
       id="g831"
       inkscape:export-xdpi="30.719769"
       inkscape:export-ydpi="30.719769">
      <path
         inkscape:connector-curvature="0"
         id="path817-9"
         d="m -127.58716,135.64498 c -0.12965,0.0217 -0.27021,0.0811 -0.42151,0.17833 -0.14042,0.0972 -0.27021,0.20534 -0.38909,0.32422 -0.30264,0.0755 -0.57823,0.1729 -0.82683,0.29183 -0.23778,0.10821 -0.47015,0.23238 -0.69711,0.37287 -0.12965,0.0865 -0.26482,0.20537 -0.40531,0.35667 -0.14041,0.14042 -0.26479,0.30809 -0.37288,0.50257 -0.10795,0.18378 -0.18913,0.38371 -0.24317,0.59985 -0.0541,0.20537 -0.0541,0.41073 0,0.61607 0.054,0.17289 0.11879,0.32962 0.19453,0.47015 0.0648,0.1188 0.14586,0.2378 0.24321,0.35666 0.0972,0.10821 0.21613,0.17289 0.35664,0.19453 0.0865,-0.45394 0.24861,-0.85383 0.48637,-1.19968 0.23779,-0.34587 0.5188,-0.62686 0.84302,-0.84303 -0.0119,0.33506 -0.0217,0.70795 -0.0324,1.11863 -0.0119,0.39992 -0.0271,0.82688 -0.0485,1.28077 -0.0119,0.44314 -0.0271,0.9025 -0.0486,1.37802 -0.0217,0.46474 -0.0431,0.92408 -0.0648,1.37803 h -0.24316 c -0.17291,0 -0.34588,-0.0166 -0.5188,-0.0487 -0.0217,0.0648 -0.0326,0.15133 -0.0326,0.2594 0,0.0865 0.0119,0.19995 0.0326,0.34045 0.0217,0.12965 0.0648,0.28103 0.12965,0.45396 0.0972,0.0119 0.19456,0.0217 0.29183,0.0324 0.10795,0.0119 0.21076,0.0217 0.30802,0.0324 -0.0119,0.0755 -0.0149,0.15133 -0.0149,0.22697 0,0.0755 -0.005,0.15133 -0.0165,0.22696 -0.0324,0.69173 -0.0487,1.25917 -0.0487,1.70228 0,0.4431 0.005,0.80519 0.0149,1.08619 0.0217,0.29182 0.0541,0.51883 0.0972,0.68092 0.0431,0.17289 0.0919,0.33506 0.14588,0.48637 0.14042,0.0217 0.30262,0.0119 0.48636,-0.0324 0.15133,-0.0324 0.32425,-0.0865 0.51878,-0.16208 0.20536,-0.0758 0.41611,-0.19453 0.63229,-0.35668 -0.0431,-0.11879 -0.0755,-0.24316 -0.0972,-0.37287 -0.0217,-0.1188 -0.0431,-0.25398 -0.0648,-0.4053 -0.0119,-0.15133 -0.0271,-0.32962 -0.0485,-0.535 -0.0119,-0.21613 -0.0217,-0.47558 -0.0324,-0.7782 -0.0324,-0.48635 -0.0487,-1.07539 -0.0487,-1.7671 0.49716,-0.054 0.95653,-0.15133 1.37801,-0.29181 0.0755,0.18371 0.16209,0.40529 0.25938,0.6647 0.10795,0.25938 0.21622,0.55659 0.32426,0.89166 0.10795,0.34586 0.22695,0.71336 0.35667,1.10241 0.14042,0.37829 0.29178,0.73498 0.45395,1.07001 0.17289,0.33507 0.37289,0.62148 0.59983,0.85923 0.22696,0.23781 0.49719,0.3891 0.81059,0.45395 0.22694,0.0324 0.44315,0.0324 0.6485,0 0.18372,-0.0217 0.3675,-0.0755 0.5512,-0.16207 0.18377,-0.0865 0.34586,-0.2378 0.48638,-0.45395 -0.23776,-0.0324 -0.47552,-0.14041 -0.71333,-0.32422 -0.23778,-0.1729 -0.46478,-0.40533 -0.68093,-0.69714 -0.21615,-0.29182 -0.42692,-0.63229 -0.63227,-1.02137 -0.19456,-0.39989 -0.37829,-0.82677 -0.5512,-1.28074 -0.1188,-0.36743 -0.23779,-0.69713 -0.35668,-0.98894 -0.11879,-0.29182 -0.21615,-0.53503 -0.2918,-0.72954 0.6485,-0.41073 1.14565,-0.92953 1.49151,-1.55636 0.35667,-0.62689 0.53499,-1.31318 0.53499,-2.05894 0,-0.65929 -0.1188,-1.21589 -0.35666,-1.66984 -0.23776,-0.46477 -0.54583,-0.8376 -0.92409,-1.11863 -0.36748,-0.29182 -0.77279,-0.50257 -1.21591,-0.63228 -0.44315,-0.12965 -0.87002,-0.19455 -1.28074,-0.19455 -0.1188,0 -0.23239,0.005 -0.34047,0.0165 -0.10821,0 -0.21075,0.005 -0.30803,0.0165 -0.0217,-0.27019 -0.12422,-0.38369 -0.30802,-0.34045 z m 0.37288,1.66984 h 0.16208 c 0.29183,0 0.58364,0.0487 0.87547,0.14587 0.30263,0.0865 0.57822,0.23238 0.82682,0.43774 0.24854,0.19456 0.4485,0.45394 0.59981,0.77819 0.16209,0.31344 0.24321,0.6971 0.24321,1.15105 0,0.59445 -0.10266,1.08081 -0.30803,1.45907 -0.20534,0.37829 -0.45937,0.68091 -0.76196,0.90791 -0.30265,0.22697 -0.63228,0.38909 -0.98894,0.48634 -0.34587,0.0972 -0.6647,0.16749 -0.95652,0.21076 0,-0.42153 0.005,-0.84305 0.0165,-1.26454 0.0119,-0.43232 0.0165,-0.84306 0.0165,-1.23213 0.0119,-0.3891 0.0217,-0.75114 0.0324,-1.08621 0.0119,-0.33503 0.0148,-0.62141 0.0148,-0.85925 0,-0.39983 0.0166,-0.77276 0.0487,-1.11863 0.0648,-0.0119 0.12422,-0.0149 0.17836,-0.0149 z"
         style="fill:#0065fc;stroke-width:0.46114367" />
      <rect
         y="135.63672"
         x="-132.93318"
         height="13.229167"
         width="13.229167"
         id="rect827"
         style="opacity:1;fill:none;fill-opacity:1;stroke:none;stroke-width:11.79061127;stroke-miterlimit:4;stroke-dasharray:none;stroke-opacity:1" />
    </g>
  </g>
</svg>
