<?xml version="1.0" encoding="UTF-8" standalone="no"?>
<svg
   xmlns:dc="http://purl.org/dc/elements/1.1/"
   xmlns:cc="http://creativecommons.org/ns#"
   xmlns:rdf="http://www.w3.org/1999/02/22-rdf-syntax-ns#"
   xmlns:svg="http://www.w3.org/2000/svg"
   xmlns="http://www.w3.org/2000/svg"
   height="384"
   width="512"
   id="svg4"
   version="1.1"
   viewBox="0 0 512 384"
   role="img"
   class="svg-inline--fa fa-chart-line fa-w-16"
   data-icon="chart-line"
   data-prefix="fas"
   focusable="false"
   aria-hidden="true">
  <metadata
     id="metadata10">
    <rdf:RDF>
      <cc:Work
         rdf:about="">
        <dc:format>image/svg+xml</dc:format>
        <dc:type
           rdf:resource="http://purl.org/dc/dcmitype/StillImage" />
        <dc:title></dc:title>
      </cc:Work>
    </rdf:RDF>
  </metadata>
  <defs
     id="defs8" />
  <path
     style="fill:currentColor"
     id="path2"
     d="M 496,320 H 64 V 16 C 64,7.16 56.84,0 48,0 H 16 C 7.16,0 0,7.16 0,16 v 336 c 0,17.67 14.33,32 32,32 h 464 c 8.84,0 16,-7.16 16,-16 v -32 c 0,-8.84 -7.16,-16 -16,-16 z M 464,32 H 345.94 c -21.38,0 -32.09,25.85 -16.97,40.97 l 32.4,32.4 -73.37,73.38 -73.37,-73.37 c -12.5,-12.5 -32.76,-12.5 -45.25,0 l -68.69,68.69 c -6.25,6.25 -6.25,16.38 0,22.63 l 22.62,22.62 c 6.25,6.25 16.38,6.25 22.63,0 l 46.06,-46.07 73.37,73.37 c 12.5,12.5 32.76,12.5 45.25,0 l 96,-96 32.4,32.4 c 15.12,15.12 40.97,4.41 40.97,-16.97 V 48 C 480,39.16 472.84,32 464,32 Z" />
</svg>
