<?xml version="1.0" encoding="UTF-8" standalone="no"?>
<svg
   xmlns:dc="http://purl.org/dc/elements/1.1/"
   xmlns:cc="http://creativecommons.org/ns#"
   xmlns:rdf="http://www.w3.org/1999/02/22-rdf-syntax-ns#"
   xmlns:svg="http://www.w3.org/2000/svg"
   xmlns="http://www.w3.org/2000/svg"
   xmlns:sodipodi="http://sodipodi.sourceforge.net/DTD/sodipodi-0.dtd"
   xmlns:inkscape="http://www.inkscape.org/namespaces/inkscape"
   aria-hidden="true"
   focusable="false"
   data-prefix="fas"
   data-icon="dog"
   class="svg-inline--fa fa-dog"
   role="img"
   viewBox="0 0 512 512"
   version="1.1"
   id="svg4"
   sodipodi:docname="dog-solid.svg"
   inkscape:version="0.92.4 (5da689c313, 2019-01-14)">
  <metadata
     id="metadata10">
    <rdf:RDF>
      <cc:Work
         rdf:about="">
        <dc:format>image/svg+xml</dc:format>
        <dc:type
           rdf:resource="http://purl.org/dc/dcmitype/StillImage" />
        <dc:title></dc:title>
      </cc:Work>
    </rdf:RDF>
  </metadata>
  <defs
     id="defs8" />
  <sodipodi:namedview
     pagecolor="#ffffff"
     bordercolor="#666666"
     borderopacity="1"
     objecttolerance="10"
     gridtolerance="10"
     guidetolerance="10"
     inkscape:pageopacity="0"
     inkscape:pageshadow="2"
     inkscape:window-width="1920"
     inkscape:window-height="1027"
     id="namedview6"
     showgrid="false"
     fit-margin-top="0"
     fit-margin-left="0"
     fit-margin-right="0"
     fit-margin-bottom="0"
     inkscape:zoom="0.4609375"
     inkscape:cx="748.2034"
     inkscape:cy="107.38983"
     inkscape:window-x="-8"
     inkscape:window-y="-8"
     inkscape:window-maximized="1"
     inkscape:current-layer="svg4" />
  <path
     d="m 265.1,208.00058 150.9,53.5 v 218.5 c 0,8.9 -7.1,16 -16,16 h -64 c -8.875,0 -16,-7.125 -16,-15.1 v -111.1 H 160 v 111.1 c 0,8 -7.1,15.1 -16,15.1 H 80 c -8.9,0 -16,-7.1 -16,-16 v -213.9 c -37.12,-13.2 -64,-48.5 -64,-90.1 0,-17.62001 14.38,-31.10001 32,-31.10001 17.62,0 32,14.37001 32,31.10001 0,16.73 14.38,31.1 32,31.1 H 265.1 Z M 512,96.000575 v 31.100005 c 0,35.37 -28.62,63.1 -64,63.1 l -32,5e-4 v 35.62 l -128,-45.75 V 32.000578 c 0,-14.25 17.25,-21.37 27.25,-11.25 l 27.38,27.25 53.63,-8e-4 c 10.88,0 23.75,7.874997 28.62,17.749997 l 7.12,14.2508 64,6e-4 c 8.9,-6e-4 16,7.0994 16,15.9994 z m -112,0 c 0,-8.875 -7.125,-15.1 -16,-15.1 -8.875,0 -16,7.124 -16,15.1 0,7.976005 7.125,15.100005 16,15.100005 8.875,0 16,-6.2 16,-15.100005 z"
     id="path2"
     style="fill:#0065fc;fill-opacity:1"
     inkscape:connector-curvature="0" />
  <rect
     style="opacity:1;fill:none;fill-opacity:1;stroke:none;stroke-width:17.84348869;stroke-miterlimit:4;stroke-dasharray:none;stroke-opacity:1"
     id="rect817"
     width="512"
     height="512"
     x="3.4179686e-07"
     y="0" />
</svg>
