<svg id="SvgjsSvg1776" xmlns="http://www.w3.org/2000/svg" version="1.1" xmlns:xlink="http://www.w3.org/1999/xlink" xmlns:svgjs="http://svgjs.com/svgjs"><defs id="SvgjsDefs1777"></defs><g id="SvgjsG1778" transform="scale(1.3601538736653085)" opacity="1"><g id="SvgjsG1779" class="BJGGQHaMz" transform="translate(13.276667277018229, -3.3333333333333335) scale(1.6666666666666667)" fill="#424242"><path d="M31 50H21v-5.68a18.857 18.857 0 0 1-4.416-1.834l-4.02 4.02-7.07-7.071 4.02-4.02A18.85 18.85 0 0 1 7.68 31H2V21h5.682a18.816 18.816 0 0 1 1.833-4.415l-4.02-4.02 7.07-7.07 4.02 4.019A18.847 18.847 0 0 1 21 7.682V2h10v5.682c1.541.42 3.02 1.034 4.416 1.833l4.02-4.02 7.07 7.07-4.02 4.02A18.826 18.826 0 0 1 44.32 21H50v10h-5.68a18.85 18.85 0 0 1-1.834 4.415l4.02 4.02-7.071 7.072-4.02-4.02A18.816 18.816 0 0 1 31 44.318V50zm-8-2h6v-5.259l.778-.178a16.844 16.844 0 0 0 5.258-2.182l.676-.426 3.723 3.724 4.243-4.243-3.723-3.723.425-.676a16.82 16.82 0 0 0 2.183-5.259l.178-.778H48v-6h-5.259l-.178-.778a16.849 16.849 0 0 0-2.182-5.257l-.426-.676 3.723-3.724-4.242-4.242-3.723 3.723-.676-.425a16.848 16.848 0 0 0-5.259-2.183L29 9.26V4h-6v5.26l-.778.178a16.863 16.863 0 0 0-5.258 2.182l-.676.425-3.723-3.723-4.243 4.242 3.724 3.724-.426.676a16.844 16.844 0 0 0-2.183 5.258L9.26 23H4v6h5.26l.178.78a16.796 16.796 0 0 0 2.181 5.256l.426.676-3.723 3.723 4.242 4.243 3.723-3.723.676.425a16.848 16.848 0 0 0 5.259 2.183l.778.178V48z"></path><path d="M26 35c-4.963 0-9-4.037-9-9s4.037-9 9-9 9 4.037 9 9-4.037 9-9 9zm0-16c-3.86 0-7 3.14-7 7s3.14 7 7 7 7-3.14 7-7-3.14-7-7-7z"></path></g><g id="SvgjsG1780" class="text" transform="translate(-1.1700000762939453, 112.3700008392334)" light-content="false" fill="#424242"><path d="M11.61-4.19C10.69-3.59 9.79-3.30 8.93-3.30C7.80-3.30 6.91-3.68 6.25-4.44L16.11-7.58C15.74-9.67 14.93-11.28 13.69-12.41C12.45-13.54 10.86-14.11 8.93-14.11C7.52-14.11 6.21-13.78 5.02-13.14C3.83-12.49 2.89-11.61 2.20-10.50C1.51-9.39 1.17-8.18 1.17-6.87C1.17-5.45 1.47-4.19 2.06-3.10C2.66-2.00 3.54-1.14 4.70-0.54C5.86 0.07 7.24 0.37 8.84 0.37C9.58 0.37 10.36 0.25 11.18 0C12.00-0.25 12.78-0.57 13.52-0.99ZM6.28-9.76C6.86-10.42 7.63-10.75 8.59-10.75C9.99-10.75 10.90-10.11 11.33-8.84L5.42-6.84L5.42-7.11C5.42-8.22 5.71-9.11 6.28-9.76ZM27.72 0L32.93 0L27.57-7.02L32.19-13.46L27.90-13.46L25.59-9.58L22.64-13.46L17.34-13.46L22.48-6.78L17.49 0L21.78 0L24.61-4.03ZM44.84-4.19C43.92-3.59 43.03-3.30 42.17-3.30C41.04-3.30 40.14-3.68 39.49-4.44L49.34-7.58C48.97-9.67 48.17-11.28 46.92-12.41C45.68-13.54 44.10-14.11 42.17-14.11C40.75-14.11 39.44-13.78 38.25-13.14C37.06-12.49 36.12-11.61 35.44-10.50C34.75-9.39 34.40-8.18 34.40-6.87C34.40-5.45 34.70-4.19 35.30-3.10C35.89-2.00 36.77-1.14 37.93-0.54C39.09 0.07 40.47 0.37 42.07 0.37C42.81 0.37 43.59 0.25 44.41 0C45.23-0.25 46.02-0.57 46.75-0.99ZM39.52-9.76C40.09-10.42 40.86-10.75 41.83-10.75C43.22-10.75 44.14-10.11 44.57-8.84L38.65-6.84L38.65-7.11C38.65-8.22 38.94-9.11 39.52-9.76ZM65.03-12.97C64.18-13.73 63.12-14.11 61.85-14.11C60.66-14.11 59.62-13.86 58.75-13.37C57.88-12.87 57.20-12.19 56.70-11.30L56.39-13.46L52.48-13.46L52.48 0L56.80 0L56.80-5.48C56.80-6.94 57.09-8.13 57.69-9.06C58.28-9.98 59.07-10.44 60.06-10.44C61.31-10.44 61.97-9.78 62.03-8.47L62.03 0L66.34 0L66.34-10.07C66.32-11.24 65.89-12.21 65.03-12.97ZM70.70-10.60C70.05-9.51 69.73-8.27 69.73-6.90C69.73-5.40 70.05-4.11 70.70-3.02C71.35-1.93 72.25-1.09 73.41-0.51C74.57 0.08 75.90 0.37 77.40 0.37C78.94 0.37 80.28 0.06 81.42-0.57C82.56-1.20 83.44-2.06 84.05-3.17C84.67-4.28 84.98-5.52 84.98-6.90C84.98-8.27 84.67-9.51 84.05-10.60C83.44-11.68 82.56-12.54 81.42-13.17C80.28-13.79 78.96-14.11 77.46-14.11C75.96-14.11 74.62-13.79 73.44-13.17C72.26-12.54 71.35-11.68 70.70-10.60ZM75.00-4.20C74.38-4.91 74.07-5.80 74.07-6.87C74.07-7.94 74.38-8.82 75.00-9.53C75.61-10.24 76.39-10.60 77.34-10.60C78.32-10.60 79.12-10.25 79.73-9.55C80.33-8.85 80.63-7.96 80.63-6.87C80.63-5.78 80.33-4.89 79.73-4.19C79.12-3.49 78.32-3.14 77.34-3.14C76.39-3.14 75.61-3.50 75.00-4.20ZM93.94-19.37L89.63-19.37L89.63-13.52L87.53-13.52L87.53-10.16L89.63-10.16L89.63 0L93.94 0L93.94-10.16L97.20-10.16L97.20-13.52L93.94-13.52ZM109.89-4.19C108.97-3.59 108.08-3.30 107.21-3.30C106.09-3.30 105.19-3.68 104.54-4.44L114.39-7.58C114.02-9.67 113.22-11.28 111.97-12.41C110.73-13.54 109.14-14.11 107.21-14.11C105.80-14.11 104.49-13.78 103.30-13.14C102.11-12.49 101.17-11.61 100.49-10.50C99.80-9.39 99.45-8.18 99.45-6.87C99.45-5.45 99.75-4.19 100.35-3.10C100.94-2.00 101.82-1.14 102.98-0.54C104.14 0.07 105.52 0.37 107.12 0.37C107.86 0.37 108.64 0.25 109.46 0C110.28-0.25 111.06-0.57 111.80-0.99ZM104.57-9.76C105.14-10.42 105.91-10.75 106.88-10.75C108.27-10.75 109.19-10.11 109.62-8.84L103.70-6.84L103.70-7.11C103.70-8.22 103.99-9.11 104.57-9.76Z"></path></g></g></svg>