<?xml version="1.0" encoding="UTF-8" standalone="no"?>
<svg
   xmlns:dc="http://purl.org/dc/elements/1.1/"
   xmlns:cc="http://creativecommons.org/ns#"
   xmlns:rdf="http://www.w3.org/1999/02/22-rdf-syntax-ns#"
   xmlns:svg="http://www.w3.org/2000/svg"
   xmlns="http://www.w3.org/2000/svg"
   xmlns:sodipodi="http://sodipodi.sourceforge.net/DTD/sodipodi-0.dtd"
   xmlns:inkscape="http://www.inkscape.org/namespaces/inkscape"
   aria-hidden="true"
   focusable="false"
   data-prefix="fas"
   data-icon="child"
   class="svg-inline--fa fa-child"
   role="img"
   viewBox="0 0 512 512.00043"
   version="1.1"
   id="svg4"
   sodipodi:docname="child.svg"
   inkscape:version="0.92.4 (5da689c313, 2019-01-14)">
  <metadata
     id="metadata10">
    <rdf:RDF>
      <cc:Work
         rdf:about="">
        <dc:format>image/svg+xml</dc:format>
        <dc:type
           rdf:resource="http://purl.org/dc/dcmitype/StillImage" />
        <dc:title></dc:title>
      </cc:Work>
    </rdf:RDF>
  </metadata>
  <defs
     id="defs8" />
  <sodipodi:namedview
     pagecolor="#ffffff"
     bordercolor="#666666"
     borderopacity="1"
     objecttolerance="10"
     gridtolerance="10"
     guidetolerance="10"
     inkscape:pageopacity="0"
     inkscape:pageshadow="2"
     inkscape:window-width="1920"
     inkscape:window-height="1027"
     id="namedview6"
     showgrid="false"
     inkscape:zoom="0.4609375"
     inkscape:cx="439.06157"
     inkscape:cy="261.09494"
     inkscape:window-x="-8"
     inkscape:window-y="-8"
     inkscape:window-maximized="1"
     inkscape:current-layer="svg4"
     fit-margin-top="0"
     fit-margin-left="0"
     fit-margin-right="0"
     fit-margin-bottom="0" />
  <path
     d="m 256.29383,144.0004 c 39.75,0 72,-32.25 72,-72 0,-39.75 -32.2,-72.0004 -72,-72.0004 -39.8,0 -72.9,32.2504 -72.9,72.0004 0,39.75 33.2,72 72.9,72 z m 191.1,-33.2 c -13.89,-17.14 -39.06,-19.8 -56.25,-5.906 l -51.25,41.506 c -47.16,38.19 -120.1,38.19 -167.3,0 l -51.13,-41.5 c -17.15,-13.9 -42.370001,-11.23 -56.250001,5.9 -13.9,17.2 -11.26,42.4 5.91,56.3 l 51.190001,41.47 c 11.73,9.496 24.63,17.16 37.98,23.92 l -0.9,247.51 c 0,17.62 14.38,32 32,32 h 15.1 c 17.62,0 32,-14.38 32,-32 v -112 h 32 v 112 c 0,17.62 14.38,32 32,32 h 15.1 c 17.62,0 32,-14.38 32,-32 l -1e-4,-247.5 c 13.35,-6.756 26.25,-14.42 37.97,-23.91 l 51.2,-41.47 c 19.8301,-13.92 21.6301,-39.12 8.6301,-56.32 z"
     id="path2"
     inkscape:connector-curvature="0"
     style="fill:#0065fc;fill-opacity:1" />
  <rect
     style="opacity:1;fill:none;fill-opacity:1;stroke:none;stroke-width:29.42448425;stroke-miterlimit:4;stroke-dasharray:none;stroke-opacity:1"
     id="rect817"
     width="512"
     height="512"
     x="0"
     y="0.00020030262" />
</svg>
