<?xml version="1.0" encoding="UTF-8" standalone="no"?>
<svg
   xmlns:dc="http://purl.org/dc/elements/1.1/"
   xmlns:cc="http://creativecommons.org/ns#"
   xmlns:rdf="http://www.w3.org/1999/02/22-rdf-syntax-ns#"
   xmlns:svg="http://www.w3.org/2000/svg"
   xmlns="http://www.w3.org/2000/svg"
   xmlns:sodipodi="http://sodipodi.sourceforge.net/DTD/sodipodi-0.dtd"
   xmlns:inkscape="http://www.inkscape.org/namespaces/inkscape"
   aria-hidden="true"
   focusable="false"
   data-prefix="fas"
   data-icon="info"
   class="svg-inline--fa fa-info fa-w-6"
   role="img"
   viewBox="0 0 512 512"
   version="1.1"
   id="svg4"
   sodipodi:docname="info-solid.svg"
   inkscape:version="0.92.4 (5da689c313, 2019-01-14)">
  <metadata
     id="metadata10">
    <rdf:RDF>
      <cc:Work
         rdf:about="">
        <dc:format>image/svg+xml</dc:format>
        <dc:type
           rdf:resource="http://purl.org/dc/dcmitype/StillImage" />
        <dc:title></dc:title>
      </cc:Work>
    </rdf:RDF>
  </metadata>
  <defs
     id="defs8" />
  <sodipodi:namedview
     pagecolor="#ffffff"
     bordercolor="#666666"
     borderopacity="1"
     objecttolerance="10"
     gridtolerance="10"
     guidetolerance="10"
     inkscape:pageopacity="0"
     inkscape:pageshadow="2"
     inkscape:window-width="1920"
     inkscape:window-height="1027"
     id="namedview6"
     showgrid="false"
     fit-margin-top="0"
     fit-margin-left="0"
     fit-margin-right="0"
     fit-margin-bottom="0"
     inkscape:zoom="0.4609375"
     inkscape:cx="654.10168"
     inkscape:cy="156.20338"
     inkscape:window-x="-8"
     inkscape:window-y="-8"
     inkscape:window-maximized="1"
     inkscape:current-layer="svg4" />
  <path
     d="m 180,424.229 h 20 V 279.771 h -20 c -11.046,0 -20,-8.954 -20,-20 V 212 c 0,-11.046 8.954,-20 20,-20 h 112 c 11.046,0 20,8.954 20,20 v 212.229 h 20 c 11.046,0 20,8.954 20,20 V 492 c 0,11.046 -8.954,20 -20,20 H 180 c -11.046,0 -20,-8.954 -20,-20 v -47.771 c 0,-11.046 8.954,-20 20,-20 z M 256,0 c -39.765,0 -72,32.235 -72,72 0,39.765 32.235,72 72,72 39.765,0 72,-32.235 72,-72 C 328,32.235 295.764,0 256,0 Z"
     id="path2"
     style="fill:#0065fc;fill-opacity:1"
     inkscape:connector-curvature="0" />
  <rect
     style="opacity:1;fill:none;fill-opacity:1;stroke:none;stroke-width:17.84348869;stroke-miterlimit:4;stroke-dasharray:none;stroke-opacity:1"
     id="rect817"
     width="512"
     height="512"
     x="0"
     y="3.9941403e-07" />
</svg>
