<?xml version="1.0" encoding="UTF-8"?>
<svg class="svg-inline--fa fa-money-bill-wave" aria-hidden="true" data-icon="money-bill-wave" data-prefix="fas" focusable="false" role="img" version="1.1" viewBox="0 0 576 576" xmlns="http://www.w3.org/2000/svg" xmlns:cc="http://creativecommons.org/ns#" xmlns:dc="http://purl.org/dc/elements/1.1/" xmlns:rdf="http://www.w3.org/1999/02/22-rdf-syntax-ns#">
 <metadata>
  <rdf:RDF>
   <cc:Work rdf:about="">
    <dc:format>image/svg+xml</dc:format>
    <dc:type rdf:resource="http://purl.org/dc/dcmitype/StillImage"/>
    <dc:title/>
   </cc:Work>
  </rdf:RDF>
 </metadata>
 <rect width="576" height="576" fill="#f00"/>
 <path d="m559 86.5c-34.9-16.25-69.8-22.5-104.7-22.5-110.8 0-221.8 62.38-332.6 62.38-27.79 0-55.57-4-83.36-13.75-3.13-1.13-6.28-1.63-9.31-1.63-15.53 0-29.03 13.38-29.03 31.8v317.4c0 12.62 6.525 24.5 16.99 29.38 34.87 16.22 69.86 22.42 104.71 22.42 110.8 0 221.7-62.38 332.6-62.38 27.79 0 55.57 4 83.36 13.75 3.15 1.125 6.301 1.625 9.338 1.625 15.502 5e-3 29.002-13.395 29.002-31.895v-317.22c0-12.63-6.5-24.5-17-29.38zm-31 96.7c-31.5-4-56-30.6-56-63.2 0-2.209 0.4486-4.262 0.6751-6.403 19.325 1.623 38.025 4.963 55.325 11.793zm-320 104.8c0-53.02 35.82-96 79.1-96s79.1 42.98 79.1 96-35.82 96-79.1 96-79.1-43-79.1-96zm-160-122.4c20.05 5 40.86 6.5 62.4 8.1-6.2 28.8-31.77 50.3-62.4 50.3zm0 227.2c31.53 4 56 30.6 56 63.2 0 2.207-0.4486 4.262-0.6751 6.403-19.375-1.603-37.975-5.003-55.325-11.803zm480 17.6c-20.05-5.02-40.85-7.4-62.44-8.139 6.24-28.761 31.84-50.261 62.44-50.261z" fill="#0065fc"/>
</svg>
