<?xml version="1.0" encoding="UTF-8" standalone="no"?>
<svg
   xmlns:dc="http://purl.org/dc/elements/1.1/"
   xmlns:cc="http://creativecommons.org/ns#"
   xmlns:rdf="http://www.w3.org/1999/02/22-rdf-syntax-ns#"
   xmlns:svg="http://www.w3.org/2000/svg"
   xmlns="http://www.w3.org/2000/svg"
   xmlns:sodipodi="http://sodipodi.sourceforge.net/DTD/sodipodi-0.dtd"
   xmlns:inkscape="http://www.inkscape.org/namespaces/inkscape"
   id="svg4"
   version="1.1"
   viewBox="0 0 576 576"
   role="img"
   class="svg-inline--fa fa-money-bill-wave"
   data-icon="money-bill-wave"
   data-prefix="fas"
   focusable="false"
   aria-hidden="true"
   sodipodi:docname="money.svg"
   inkscape:version="0.92.4 (5da689c313, 2019-01-14)">
  <sodipodi:namedview
     pagecolor="#ffffff"
     bordercolor="#666666"
     borderopacity="1"
     objecttolerance="10"
     gridtolerance="10"
     guidetolerance="10"
     inkscape:pageopacity="0"
     inkscape:pageshadow="2"
     inkscape:window-width="1920"
     inkscape:window-height="1027"
     id="namedview8"
     showgrid="false"
     inkscape:zoom="0.40972222"
     inkscape:cx="288"
     inkscape:cy="288"
     inkscape:window-x="-8"
     inkscape:window-y="-8"
     inkscape:window-maximized="1"
     inkscape:current-layer="svg4" />
  <metadata
     id="metadata10">
    <rdf:RDF>
      <cc:Work
         rdf:about="">
        <dc:format>image/svg+xml</dc:format>
        <dc:type
           rdf:resource="http://purl.org/dc/dcmitype/StillImage" />
        <dc:title></dc:title>
      </cc:Work>
    </rdf:RDF>
  </metadata>
  <defs
     id="defs8" />
  <rect
     y="0"
     x="0"
     height="576"
     width="576"
     id="rect12"
     style="opacity:1;fill:#ff0000;fill-opacity:1;stroke:none;stroke-width:0;stroke-linecap:round;stroke-miterlimit:4;stroke-dasharray:none;stroke-opacity:1" />
  <path
     inkscape:connector-curvature="0"
     style="fill:#0065fc"
     id="path2"
     d="m 558.99999,86.499998 c -34.9,-16.24999 -69.8,-22.49999 -104.7,-22.49999 -110.8,0 -221.8,62.379992 -332.6,62.379992 -27.789997,0 -55.569997,-4 -83.359997,-13.75 -3.13,-1.13 -6.28,-1.63 -9.31,-1.63 C 13.500002,111 2.3007812e-6,124.38 2.3007812e-6,142.8 V 460.2 C 2.3007812e-6,472.82 6.5250023,484.7 16.990002,489.58 51.859993,505.8 86.849993,512 121.69999,512 c 110.8,0 221.7,-62.38 332.6,-62.38 27.79,0 55.57,4 83.36,13.75 3.15,1.125 6.301,1.625 9.338,1.625 15.502,0.005 29.002,-13.395 29.002,-31.895 V 115.88 c 0,-12.63 -6.5,-24.500002 -17,-29.380002 z m -31,96.700002 c -31.5,-4 -56,-30.6 -56,-63.2 0,-2.209 0.4486,-4.262 0.6751,-6.403 19.3249,1.623 38.0249,4.963 55.3249,11.793 z m -320,104.8 c 0,-53.02 35.82,-96 79.1,-96 43.28,0 79.1,42.98 79.1,96 0,53.02 -35.82,96 -79.1,96 -43.28,0 -79.1,-43 -79.1,-96 z M 47.999993,165.6 c 20.05,5 40.86,6.5 62.399997,8.1 -6.2,28.8 -31.769997,50.3 -62.399997,50.3 z m 0,227.2 c 31.53,4 55.999997,30.6 55.999997,63.2 0,2.207 -0.4486,4.262 -0.6751,6.403 C 83.949993,460.8 65.349993,457.4 47.999993,450.6 Z m 479.999997,17.6 c -20.05,-5.02 -40.85,-7.4 -62.44,-8.139 6.24,-28.761 31.84,-50.261 62.44,-50.261 z" />
</svg>
