<?xml version="1.0" encoding="UTF-8" standalone="no"?>
<svg
   xmlns:dc="http://purl.org/dc/elements/1.1/"
   xmlns:cc="http://creativecommons.org/ns#"
   xmlns:rdf="http://www.w3.org/1999/02/22-rdf-syntax-ns#"
   xmlns:svg="http://www.w3.org/2000/svg"
   xmlns="http://www.w3.org/2000/svg"
   xmlns:sodipodi="http://sodipodi.sourceforge.net/DTD/sodipodi-0.dtd"
   xmlns:inkscape="http://www.inkscape.org/namespaces/inkscape"
   aria-hidden="true"
   focusable="false"
   data-prefix="fas"
   data-icon="money-bill-wave"
   class="svg-inline--fa fa-money-bill-wave"
   role="img"
   viewBox="0 0 576 512"
   version="1.1"
   id="svg4"
   sodipodi:docname="money-bill-wave-solid_4.svg"
   inkscape:version="0.92.4 (5da689c313, 2019-01-14)">
  <metadata
     id="metadata10">
    <rdf:RDF>
      <cc:Work
         rdf:about="">
        <dc:format>image/svg+xml</dc:format>
        <dc:type
           rdf:resource="http://purl.org/dc/dcmitype/StillImage" />
        <dc:title></dc:title>
      </cc:Work>
    </rdf:RDF>
  </metadata>
  <defs
     id="defs8" />
  <sodipodi:namedview
     pagecolor="#ffffff"
     bordercolor="#666666"
     borderopacity="1"
     objecttolerance="10"
     gridtolerance="10"
     guidetolerance="10"
     inkscape:pageopacity="0"
     inkscape:pageshadow="2"
     inkscape:window-width="1920"
     inkscape:window-height="1027"
     id="namedview6"
     showgrid="false"
     inkscape:zoom="0.921875"
     inkscape:cx="146.60455"
     inkscape:cy="-131.47277"
     inkscape:window-x="-8"
     inkscape:window-y="-8"
     inkscape:window-maximized="1"
     inkscape:current-layer="svg4" />
  <g
     id="g4536"
     transform="translate(-189.83051,325.42373)">
    <path
       style="fill:#0065fc"
       inkscape:connector-curvature="0"
       id="path2"
       d="m 507.767,81.595035 c -34.9,-16.249998 -69.8,-22.499994 -104.7,-22.499994 -110.8,0 -221.8,62.379989 -332.600003,62.379989 -27.79,0 -55.57,-4 -83.36,-13.75 -3.13,-1.13 -6.28,-1.63 -9.31,-1.63 -15.53,0 -29.03,13.38 -29.03,31.8 v 317.4 c 0,12.62 6.525,24.5 16.99,29.38 34.87000014,16.22 69.86,22.42 104.71,22.42 110.800003,0 221.700003,-62.38 332.600003,-62.38 27.79,0 55.57,4 83.36,13.75 3.15,1.125 6.301,1.625 9.338,1.625 15.502,0.005 29.002,-13.395 29.002,-31.895 v -317.22 c 0,-12.629995 -6.5,-24.499995 -17,-29.379995 z m -31,96.699995 c -31.5,-4 -56,-30.6 -56,-63.2 0,-2.209 0.4486,-4.262 0.6751,-6.403 19.3249,1.623 38.0249,4.963 55.3249,11.793 z m -320,104.8 c 0,-53.02 35.82,-96 79.1,-96 43.28,0 79.1,42.98 79.1,96 0,53.02 -35.82,96 -79.1,96 -43.28,0 -79.1,-43 -79.1,-96 z m -160.0000029,-122.4 c 20.0499999,5 40.8599999,6.5 62.3999999,8.1 -6.2,28.8 -31.77,50.3 -62.3999999,50.3 z m 0,227.2 c 31.5299999,4 55.9999999,30.6 55.9999999,63.2 0,2.207 -0.4486,4.262 -0.6751,6.403 -19.3749,-1.603 -37.9749,-5.003 -55.3248999,-11.803 z m 480.0000029,17.6 c -20.05,-5.02 -40.85,-7.4 -62.44,-8.139 6.24,-28.761 31.84,-50.261 62.44,-50.261 z" />
    <rect
       y="-3.9552855"
       x="-50.283356"
       height="574.10065"
       width="574.10071"
       id="rect12"
       style="opacity:1;fill:none;fill-opacity:1;stroke:none;stroke-width:0;stroke-linecap:round;stroke-miterlimit:4;stroke-dasharray:none;stroke-opacity:1" />
  </g>
</svg>
